<mxfile host="65bd71144e">
    <diagram id="tPkex4Xwo_ldkRDcLCxH" name="Page-1">
        <mxGraphModel dx="1729" dy="854" grid="1" gridSize="10" guides="1" tooltips="1" connect="1" arrows="1" fold="1" page="1" pageScale="1" pageWidth="1169" pageHeight="827" math="0" shadow="0">
            <root>
                <mxCell id="0"/>
                <mxCell id="1" parent="0"/>
                <mxCell id="12" value="" style="rounded=0;whiteSpace=wrap;html=1;" vertex="1" parent="1">
                    <mxGeometry x="10" y="10" width="940" height="450" as="geometry"/>
                </mxCell>
                <mxCell id="byKUF5kAsZpEWGFSxz35-34" style="rounded=1;orthogonalLoop=1;jettySize=auto;html=1;entryX=0;entryY=0.5;entryDx=0;entryDy=0;dashed=1;endArrow=blockThin;endFill=1;strokeWidth=2;fontFamily=varela round;fontSize=14;fontColor=#000000;exitX=1;exitY=0.5;exitDx=0;exitDy=0;fillColor=#aa00ff;strokeColor=#7700CC;edgeStyle=entityRelationEdgeStyle;" parent="1" source="byKUF5kAsZpEWGFSxz35-1" target="byKUF5kAsZpEWGFSxz35-6" edge="1">
                    <mxGeometry relative="1" as="geometry"/>
                </mxCell>
                <mxCell id="byKUF5kAsZpEWGFSxz35-1" value="Event A" style="rounded=1;whiteSpace=wrap;html=1;fillColor=#dae8fc;strokeColor=#6c8ebf;fontFamily=varela round;fontSize=14;" parent="1" vertex="1">
                    <mxGeometry x="80" y="130" width="120" height="40" as="geometry"/>
                </mxCell>
                <mxCell id="byKUF5kAsZpEWGFSxz35-33" style="rounded=1;orthogonalLoop=1;jettySize=auto;html=1;entryX=0;entryY=0.5;entryDx=0;entryDy=0;dashed=1;endArrow=blockThin;endFill=1;strokeWidth=2;fontFamily=varela round;fontSize=14;fontColor=#000000;exitX=1;exitY=0.5;exitDx=0;exitDy=0;fillColor=#aa00ff;strokeColor=#7700CC;edgeStyle=entityRelationEdgeStyle;" parent="1" source="byKUF5kAsZpEWGFSxz35-2" target="byKUF5kAsZpEWGFSxz35-6" edge="1">
                    <mxGeometry relative="1" as="geometry"/>
                </mxCell>
                <mxCell id="byKUF5kAsZpEWGFSxz35-2" value="Event B" style="rounded=1;whiteSpace=wrap;html=1;fillColor=#dae8fc;strokeColor=#6c8ebf;fontFamily=varela round;fontSize=14;" parent="1" vertex="1">
                    <mxGeometry x="80" y="210" width="120" height="40" as="geometry"/>
                </mxCell>
                <mxCell id="byKUF5kAsZpEWGFSxz35-32" style="rounded=1;orthogonalLoop=1;jettySize=auto;html=1;endArrow=blockThin;endFill=1;strokeWidth=2;fontFamily=varela round;fontSize=14;fontColor=#000000;dashed=1;exitX=1;exitY=0.5;exitDx=0;exitDy=0;entryX=0;entryY=0.5;entryDx=0;entryDy=0;fillColor=#aa00ff;strokeColor=#7700CC;edgeStyle=entityRelationEdgeStyle;" parent="1" source="byKUF5kAsZpEWGFSxz35-3" target="byKUF5kAsZpEWGFSxz35-6" edge="1">
                    <mxGeometry relative="1" as="geometry"/>
                </mxCell>
                <mxCell id="byKUF5kAsZpEWGFSxz35-3" value="Event C" style="rounded=1;whiteSpace=wrap;html=1;fillColor=#dae8fc;strokeColor=#6c8ebf;fontFamily=varela round;fontSize=14;" parent="1" vertex="1">
                    <mxGeometry x="80" y="290" width="120" height="40" as="geometry"/>
                </mxCell>
                <mxCell id="byKUF5kAsZpEWGFSxz35-13" style="rounded=1;orthogonalLoop=1;jettySize=auto;html=1;entryX=0;entryY=0.5;entryDx=0;entryDy=0;endArrow=blockThin;endFill=1;dashed=1;strokeWidth=2;fontFamily=varela round;fontSize=14;fillColor=#aa00ff;strokeColor=#7700CC;edgeStyle=entityRelationEdgeStyle;" parent="1" source="byKUF5kAsZpEWGFSxz35-4" target="byKUF5kAsZpEWGFSxz35-6" edge="1">
                    <mxGeometry relative="1" as="geometry"/>
                </mxCell>
                <mxCell id="byKUF5kAsZpEWGFSxz35-4" value="Event D" style="rounded=1;whiteSpace=wrap;html=1;fillColor=#dae8fc;strokeColor=#6c8ebf;fontFamily=varela round;fontSize=14;" parent="1" vertex="1">
                    <mxGeometry x="80" y="370" width="120" height="40" as="geometry"/>
                </mxCell>
                <mxCell id="byKUF5kAsZpEWGFSxz35-5" value="Event Mapping" style="rounded=1;whiteSpace=wrap;html=1;rotation=-90;arcSize=18;fillColor=#f5f5f5;strokeColor=#666666;fontColor=#333333;opacity=80;fontSize=14;fontStyle=1;fontFamily=varela round;strokeWidth=2;" parent="1" vertex="1">
                    <mxGeometry x="160" y="250" width="280" height="40" as="geometry"/>
                </mxCell>
                <mxCell id="byKUF5kAsZpEWGFSxz35-22" style="rounded=1;orthogonalLoop=1;jettySize=auto;html=1;entryX=0;entryY=0.5;entryDx=0;entryDy=0;endArrow=blockThin;endFill=1;edgeStyle=entityRelationEdgeStyle;strokeWidth=2;fontFamily=varela round;fontSize=14;strokeColor=#808080;exitX=1;exitY=0.5;exitDx=0;exitDy=0;" parent="1" source="byKUF5kAsZpEWGFSxz35-28" target="byKUF5kAsZpEWGFSxz35-16" edge="1">
                    <mxGeometry relative="1" as="geometry">
                        <mxPoint x="720" y="280" as="sourcePoint"/>
                    </mxGeometry>
                </mxCell>
                <mxCell id="byKUF5kAsZpEWGFSxz35-29" style="edgeStyle=entityRelationEdgeStyle;rounded=1;orthogonalLoop=1;jettySize=auto;html=1;exitX=1;exitY=0.5;exitDx=0;exitDy=0;endArrow=blockThin;endFill=1;strokeWidth=2;fontFamily=varela round;fontSize=14;entryX=0;entryY=0.5;entryDx=0;entryDy=0;strokeColor=#808080;" parent="1" source="byKUF5kAsZpEWGFSxz35-6" target="byKUF5kAsZpEWGFSxz35-28" edge="1">
                    <mxGeometry relative="1" as="geometry"/>
                </mxCell>
                <mxCell id="byKUF5kAsZpEWGFSxz35-6" value="Rules Engine" style="rounded=1;whiteSpace=wrap;html=1;fillColor=#aa00ff;strokeColor=#7700CC;fontColor=#ffffff;fontFamily=varela round;fontSize=14;" parent="1" vertex="1">
                    <mxGeometry x="400" y="250" width="120" height="40" as="geometry"/>
                </mxCell>
                <mxCell id="byKUF5kAsZpEWGFSxz35-14" value="Yaml" style="text;html=1;strokeColor=none;fillColor=none;align=center;verticalAlign=middle;whiteSpace=wrap;rounded=0;fontFamily=varela round;fontSize=14;" parent="1" vertex="1">
                    <mxGeometry x="280" y="410" width="40" height="20" as="geometry"/>
                </mxCell>
                <mxCell id="byKUF5kAsZpEWGFSxz35-15" value="Task A" style="rounded=1;whiteSpace=wrap;html=1;fillColor=#0050ef;strokeColor=#001DBC;fontFamily=varela round;fontSize=14;fontColor=#ffffff;" parent="1" vertex="1">
                    <mxGeometry x="800" y="170" width="120" height="40" as="geometry"/>
                </mxCell>
                <mxCell id="byKUF5kAsZpEWGFSxz35-16" value="Task B" style="rounded=1;whiteSpace=wrap;html=1;fillColor=#0050ef;strokeColor=#001DBC;fontFamily=varela round;fontSize=14;fontColor=#ffffff;" parent="1" vertex="1">
                    <mxGeometry x="800" y="250" width="120" height="40" as="geometry"/>
                </mxCell>
                <mxCell id="byKUF5kAsZpEWGFSxz35-24" value="GitHub Event" style="text;html=1;strokeColor=none;fillColor=none;align=center;verticalAlign=middle;whiteSpace=wrap;rounded=0;opacity=50;fontFamily=varela round;fontSize=18;" parent="1" vertex="1">
                    <mxGeometry x="80" y="40" width="120" height="20" as="geometry"/>
                </mxCell>
                <mxCell id="byKUF5kAsZpEWGFSxz35-26" value="Event Handler" style="text;html=1;strokeColor=none;fillColor=none;align=center;verticalAlign=middle;whiteSpace=wrap;rounded=0;opacity=50;fontFamily=varela round;fontSize=18;" parent="1" vertex="1">
                    <mxGeometry x="375" y="40" width="170" height="20" as="geometry"/>
                </mxCell>
                <mxCell id="byKUF5kAsZpEWGFSxz35-27" value="Task" style="text;html=1;strokeColor=none;fillColor=none;align=center;verticalAlign=middle;whiteSpace=wrap;rounded=0;opacity=50;fontFamily=varela round;fontSize=18;" parent="1" vertex="1">
                    <mxGeometry x="760" y="40" width="120" height="20" as="geometry"/>
                </mxCell>
                <mxCell id="byKUF5kAsZpEWGFSxz35-30" style="edgeStyle=entityRelationEdgeStyle;rounded=1;orthogonalLoop=1;jettySize=auto;html=1;endArrow=blockThin;endFill=1;strokeWidth=2;fontFamily=varela round;fontSize=14;fontColor=#000000;entryX=0;entryY=0.75;entryDx=0;entryDy=0;strokeColor=#808080;exitX=1;exitY=0.5;exitDx=0;exitDy=0;" parent="1" source="byKUF5kAsZpEWGFSxz35-37" target="byKUF5kAsZpEWGFSxz35-16" edge="1">
                    <mxGeometry relative="1" as="geometry">
                        <mxPoint x="800" y="350" as="targetPoint"/>
                    </mxGeometry>
                </mxCell>
                <mxCell id="byKUF5kAsZpEWGFSxz35-28" value="Rules" style="rounded=1;whiteSpace=wrap;html=1;fillColor=#aa00ff;strokeColor=#7700CC;fontColor=#FFFFFF;fontFamily=varela round;fontSize=14;opacity=50;" parent="1" vertex="1">
                    <mxGeometry x="600" y="250" width="120" height="40" as="geometry"/>
                </mxCell>
                <mxCell id="byKUF5kAsZpEWGFSxz35-36" value="Rules" style="rounded=1;whiteSpace=wrap;html=1;fillColor=#aa00ff;strokeColor=#7700CC;fontColor=#FFFFFF;fontFamily=varela round;fontSize=14;opacity=50;" parent="1" vertex="1">
                    <mxGeometry x="600" y="170" width="120" height="40" as="geometry"/>
                </mxCell>
                <mxCell id="5" style="edgeStyle=entityRelationEdgeStyle;html=1;strokeColor=#808080;endArrow=blockThin;endFill=1;strokeWidth=2;exitX=1;exitY=0.5;exitDx=0;exitDy=0;entryX=0;entryY=0.5;entryDx=0;entryDy=0;" parent="1" source="byKUF5kAsZpEWGFSxz35-36" target="byKUF5kAsZpEWGFSxz35-15" edge="1">
                    <mxGeometry relative="1" as="geometry">
                        <mxPoint x="800" y="190" as="targetPoint"/>
                    </mxGeometry>
                </mxCell>
                <mxCell id="byKUF5kAsZpEWGFSxz35-37" value="Rules" style="rounded=1;whiteSpace=wrap;html=1;fillColor=#aa00ff;strokeColor=#7700CC;fontColor=#FFFFFF;fontFamily=varela round;fontSize=14;opacity=50;" parent="1" vertex="1">
                    <mxGeometry x="600" y="330" width="120" height="40" as="geometry"/>
                </mxCell>
                <mxCell id="2" value="m:1" style="text;html=1;strokeColor=none;fillColor=none;align=center;verticalAlign=middle;whiteSpace=wrap;rounded=0;opacity=50;fontFamily=varela round;fontSize=16;" parent="1" vertex="1">
                    <mxGeometry x="700" y="90" width="120" height="20" as="geometry"/>
                </mxCell>
                <mxCell id="4" value="" style="endArrow=none;html=1;rounded=1;fontSize=18;" parent="1" edge="1">
                    <mxGeometry width="50" height="50" relative="1" as="geometry">
                        <mxPoint x="40" y="70" as="sourcePoint"/>
                        <mxPoint x="920" y="70" as="targetPoint"/>
                    </mxGeometry>
                </mxCell>
                <mxCell id="6" value="m:n" style="text;html=1;strokeColor=none;fillColor=none;align=center;verticalAlign=middle;whiteSpace=wrap;rounded=0;opacity=50;fontFamily=varela round;fontSize=16;" parent="1" vertex="1">
                    <mxGeometry x="400" y="90" width="120" height="20" as="geometry"/>
                </mxCell>
                <mxCell id="7" value="&lt;font color=&quot;#b3b3b3&quot;&gt;Events to Rules&lt;/font&gt;" style="text;html=1;strokeColor=none;fillColor=none;align=center;verticalAlign=middle;whiteSpace=wrap;rounded=0;opacity=50;fontFamily=varela round;fontSize=14;fontColor=#808080;" parent="1" vertex="1">
                    <mxGeometry x="400" y="110" width="120" height="20" as="geometry"/>
                </mxCell>
                <mxCell id="8" value="&lt;font color=&quot;#b3b3b3&quot;&gt;Rules to Tasks&lt;/font&gt;" style="text;html=1;strokeColor=none;fillColor=none;align=center;verticalAlign=middle;whiteSpace=wrap;rounded=0;opacity=50;fontFamily=varela round;fontSize=14;fontColor=#808080;" parent="1" vertex="1">
                    <mxGeometry x="700" y="110" width="120" height="20" as="geometry"/>
                </mxCell>
                <mxCell id="9" style="edgeStyle=entityRelationEdgeStyle;rounded=1;orthogonalLoop=1;jettySize=auto;html=1;exitX=1;exitY=0.5;exitDx=0;exitDy=0;endArrow=blockThin;endFill=1;strokeWidth=2;fontFamily=varela round;fontSize=14;entryX=0;entryY=0.5;entryDx=0;entryDy=0;strokeColor=#808080;" parent="1" source="byKUF5kAsZpEWGFSxz35-6" target="byKUF5kAsZpEWGFSxz35-37" edge="1">
                    <mxGeometry relative="1" as="geometry">
                        <mxPoint x="530" y="280" as="sourcePoint"/>
                        <mxPoint x="610" y="280" as="targetPoint"/>
                    </mxGeometry>
                </mxCell>
                <mxCell id="10" style="edgeStyle=entityRelationEdgeStyle;rounded=1;orthogonalLoop=1;jettySize=auto;html=1;exitX=1;exitY=0.5;exitDx=0;exitDy=0;endArrow=blockThin;endFill=1;strokeWidth=2;fontFamily=varela round;fontSize=14;entryX=0;entryY=0.5;entryDx=0;entryDy=0;strokeColor=#808080;" parent="1" source="byKUF5kAsZpEWGFSxz35-6" target="byKUF5kAsZpEWGFSxz35-36" edge="1">
                    <mxGeometry relative="1" as="geometry">
                        <mxPoint x="530" y="280" as="sourcePoint"/>
                        <mxPoint x="610" y="360" as="targetPoint"/>
                    </mxGeometry>
                </mxCell>
                <mxCell id="11" value="Yaml" style="text;html=1;strokeColor=none;fillColor=none;align=center;verticalAlign=middle;whiteSpace=wrap;rounded=0;fontFamily=varela round;fontSize=14;" parent="1" vertex="1">
                    <mxGeometry x="640" y="410" width="40" height="20" as="geometry"/>
                </mxCell>
            </root>
        </mxGraphModel>
    </diagram>
</mxfile>